<?xml version="1.0" encoding="UTF-8" standalone="no"?>
<!-- License: PD. Made by Mary Akveo: https://maryakveo.com/ -->

<svg
   fill="#000000"
   width="519.16675"
   height="456.87262"
   viewBox="0 0 15.575002 13.706179"
   id="game-console-cable"
   data-name="Line Color"
   class="icon line-color"
   version="1.1"
   sodipodi:docname="game-console-cable.svg"
   inkscape:version="1.3.2 (091e20e, 2023-11-25, custom)"
   xmlns:inkscape="http://www.inkscape.org/namespaces/inkscape"
   xmlns:sodipodi="http://sodipodi.sourceforge.net/DTD/sodipodi-0.dtd"
   xmlns="http://www.w3.org/2000/svg"
   xmlns:svg="http://www.w3.org/2000/svg">
  <defs
     id="defs1">
    <rect
       x="72.640381"
       y="432.01913"
       width="646.11707"
       height="182.55675"
       id="rect3" />
  </defs>
  <sodipodi:namedview
     id="namedview1"
     pagecolor="#ffffff"
     bordercolor="#000000"
     borderopacity="0.25"
     inkscape:showpageshadow="2"
     inkscape:pageopacity="0.0"
     inkscape:pagecheckerboard="0"
     inkscape:deskcolor="#d1d1d1"
     inkscape:zoom="1.08"
     inkscape:cx="431.01852"
     inkscape:cy="469.90741"
     inkscape:window-width="1920"
     inkscape:window-height="1051"
     inkscape:window-x="-9"
     inkscape:window-y="-9"
     inkscape:window-maximized="1"
     inkscape:current-layer="g12"
     showguides="false" />
  <g
     id="g12"
     transform="matrix(0.84211306,0,0,0.94203267,-2.6512126,-3.0771596)"
     style="stroke-width:1.12275">
    <path
       id="rect12"
       style="fill:#38b000;fill-opacity:1;stroke:#38b000;stroke-width:1.01047;stroke-linecap:round;stroke-linejoin:round;stroke-dasharray:none;stroke-opacity:1;paint-order:fill markers stroke"
       d="m 9.6683644,5.1200133 0.9824996,2.6953462 h 0.483976 2.236983 0.483975 L 14.8383,5.1200133 h -2.44898 -0.271976 z" />
    <path
       id="path4"
       style="fill:none;stroke:#000000;stroke-width:0.825268;stroke-linecap:round;stroke-linejoin:round"
       d="m 5.8370508,3.6793359 c -1.6301144,-0.024858 -2.4445631,2.3228894 -2.2458399,4.157168 0.1205599,1.9413237 0.8379884,3.4562091 1.2375,5.0632031 0.4477986,1.218217 1.1399495,4.637475 2.4703125,4.499473 0.6554544,-0.114319 0.640911,-1.268119 0.8250586,-2.214375 0.351231,-2.087275 0.3442064,-2.13596 0.9279492,-3.213399 0.6686573,-0.905429 2.2361498,-1.037331 3.3375588,-1.064004 1.104987,0.0244 2.675268,0.121393 3.349043,1.035682 0.583742,1.077439 0.605391,1.126123 0.985297,3.184724 0.184147,0.946256 0.112315,2.157463 0.767769,2.271782 1.330363,0.138002 2.022456,-3.281315 2.470254,-4.499531 0.399512,-1.606995 1.116999,-3.1218799 1.237559,-5.0632035 0.254365,-2.3478767 -1.151277,-5.5369958 -3.802676,-3.5148633 -1.656925,0.2675022 -3.30309,0.3906866 -4.93834,0.3672656 l -0.09184,0.015964 -0.03443,-0.016316 C 10.696976,4.7123269 9.0507533,4.5890841 7.3938281,4.321582 6.8138344,3.8792406 6.2934828,3.6862963 5.8370508,3.6793359 Z"
       sodipodi:nodetypes="sccccccccccccccccs" />
    <g
       id="g1"
       transform="matrix(1.1052864,-0.03598119,0.03568028,1.1146078,-2.2580448,-0.73076054)"
       style="stroke-width:1.01102">
      <ellipse
         style="fill:#000000;fill-opacity:1;stroke:none;stroke-width:0.141541"
         id="path1-0"
         cx="18.676954"
         cy="6.6488943"
         rx="0.35842294"
         ry="0.31541219" />
      <ellipse
         style="fill:#000000;fill-opacity:1;stroke:none;stroke-width:0.141541"
         id="path1-0-4"
         cx="18.625027"
         cy="8.2575045"
         rx="0.35842294"
         ry="0.31541219" />
      <ellipse
         style="fill:#000000;fill-opacity:1;stroke:none;stroke-width:0.141541"
         id="path1"
         cx="17.648943"
         cy="7.5351381"
         rx="0.35842294"
         ry="0.31541219" />
      <ellipse
         style="fill:#38b000;fill-opacity:1;stroke:none;stroke-width:0.141541"
         id="path1-4"
         cx="19.639746"
         cy="7.5994043"
         rx="0.35842294"
         ry="0.31541219" />
    </g>
    <g
       id="g2"
       transform="translate(0,0.28172242)"
       style="stroke-width:1.12275">
      <rect
         style="fill:#000000;fill-opacity:1;stroke:none;stroke-width:0.157183"
         id="rect1"
         width="0.37275985"
         height="2.2365592"
         x="6.2580609"
         y="5.505547" />
      <rect
         style="fill:#000000;fill-opacity:1;stroke:none;stroke-width:0.157183"
         id="rect2"
         width="2.1505375"
         height="0.37275985"
         x="5.3691716"
         y="6.42311" />
    </g>
    <text
       xml:space="preserve"
       id="text2"
       style="font-style:normal;font-variant:normal;font-weight:bold;font-stretch:normal;font-size:46.9382px;font-family:Sans;-inkscape-font-specification:'Sans, Bold';font-variant-ligatures:normal;font-variant-caps:normal;font-variant-numeric:normal;font-variant-east-asian:normal;white-space:pre;shape-inside:url(#rect3);display:inline;fill:#38b000;fill-opacity:1;stroke:none;stroke-width:142.881;stroke-dasharray:none;stroke-opacity:1"
       transform="matrix(0.01118285,0,-0.01451945,0.02412227,15.951802,-1.9121539)"><tspan
         x="72.640625"
         y="474.84268"
         id="tspan1">GAME GROVER</tspan></text>
  </g>
</svg>
