<?xml version="1.0" encoding="UTF-8" standalone="no"?>
<!-- License: PD. Made by Mary Akveo: https://maryakveo.com/ -->

<svg
   fill="#000000"
   width="523.7215"
   height="318.33014"
   viewBox="0 0 15.711644 9.5499045"
   id="game-console-cable"
   data-name="Line Color"
   class="icon line-color"
   version="1.1"
   sodipodi:docname="icono-black.svg"
   inkscape:version="1.3.2 (091e20e, 2023-11-25, custom)"
   xmlns:inkscape="http://www.inkscape.org/namespaces/inkscape"
   xmlns:sodipodi="http://sodipodi.sourceforge.net/DTD/sodipodi-0.dtd"
   xmlns="http://www.w3.org/2000/svg"
   xmlns:svg="http://www.w3.org/2000/svg">
  <sodipodi:namedview
     id="namedview1"
     pagecolor="#ffffff"
     bordercolor="#000000"
     borderopacity="0.25"
     inkscape:showpageshadow="2"
     inkscape:pageopacity="0.0"
     inkscape:pagecheckerboard="0"
     inkscape:deskcolor="#d1d1d1"
     inkscape:zoom="1.3062462"
     inkscape:cx="364.40298"
     inkscape:cy="59.330317"
     inkscape:window-width="1920"
     inkscape:window-height="1051"
     inkscape:window-x="-9"
     inkscape:window-y="-9"
     inkscape:window-maximized="1"
     inkscape:current-layer="game-console-cable"
     showguides="false" />
  <defs
     id="defs1">
    <rect
       x="320.1083"
       y="52.169549"
       width="174.23617"
       height="225.39271"
       id="rect5" />
    <rect
       x="340.36832"
       y="49.637047"
       width="48.117546"
       height="177.78167"
       id="rect4" />
    <rect
       x="72.640381"
       y="432.01913"
       width="646.11707"
       height="182.55675"
       id="rect3" />
    <clipPath
       clipPathUnits="userSpaceOnUse"
       id="clipPath15">
      <rect
         style="display:none;fill:none;stroke:#717171;stroke-width:0.03;stroke-linecap:round;stroke-linejoin:round;stroke-dasharray:none;stroke-dashoffset:0;stroke-opacity:1;paint-order:fill markers stroke"
         id="rect15"
         width="2.9946346"
         height="3.0108635"
         x="5.166667"
         y="7.7777781"
         d="M 5.166667,7.7777781 H 8.3888893 V 11.333334 H 5.166667 Z" />
      <path
         id="lpe_path-effect15"
         style="fill:none;stroke:#717171;stroke-width:0.03;stroke-linecap:round;stroke-linejoin:round;stroke-dasharray:none;stroke-dashoffset:0;stroke-opacity:1;paint-order:fill markers stroke"
         class="powerclip"
         d="M -6.2547707,1.2763798 H 19.456873 V 20.826284 H -6.2547707 Z M 5.166667,7.7777781 4.7114918,11.40596 8.6164769,11.369647 8.3888893,7.7777781 Z"
         sodipodi:nodetypes="cccccccccc" />
    </clipPath>
    <rect
       x="72.640381"
       y="432.01913"
       width="646.11707"
       height="182.55675"
       id="rect3-6" />
    <clipPath
       clipPathUnits="userSpaceOnUse"
       id="clipPath15-5">
      <rect
         style="display:none;fill:none;stroke:#717171;stroke-width:0.03;stroke-linecap:round;stroke-linejoin:round;stroke-dasharray:none;stroke-dashoffset:0;stroke-opacity:1;paint-order:fill markers stroke"
         id="rect15-9"
         width="3.2222223"
         height="3.5555556"
         x="5.166667"
         y="7.7777781"
         d="M 5.166667,7.7777781 H 8.3888893 V 11.333334 H 5.166667 Z" />
      <path
         id="lpe_path-effect15-0"
         style="fill:none;stroke:#717171;stroke-width:0.03;stroke-linecap:round;stroke-linejoin:round;stroke-dasharray:none;stroke-dashoffset:0;stroke-opacity:1;paint-order:fill markers stroke"
         class="powerclip"
         d="M -6.2547707,1.2763798 H 19.456873 V 20.826284 H -6.2547707 Z M 5.166667,7.7777781 V 11.333334 H 8.3888893 V 7.7777781 Z" />
    </clipPath>
    <rect
       x="320.10831"
       y="52.169548"
       width="174.23618"
       height="225.39272"
       id="rect5-8" />
  </defs>
  <g
     id="g7">
    <g
       id="g6"
       transform="matrix(1.7834648,0,0,1.8447962,-13.286631,0.21807653)"
       style="stroke-width:0.551307">
      <g
         id="g15"
         transform="matrix(0,-0.26033469,0.37411778,0,10.651675,4.2697925)"
         style="stroke-width:1.76652">
        <g
           id="g12"
           transform="matrix(0.84211306,0,0,0.71096779,-2.9289904,-1.8508501)"
           style="stroke-width:2.28316">
          <g
             id="g1"
             transform="matrix(1.2275924,-0.04248305,0.0396285,1.3160192,-5.2069146,-2.8428485)"
             style="stroke-width:1.79535">
            <ellipse
               style="fill:#000000;fill-opacity:1;stroke:none;stroke-width:0.251339"
               id="path1-0"
               cx="18.676954"
               cy="6.6488943"
               rx="0.35842294"
               ry="0.31541219" />
            <ellipse
               style="fill:#000000;fill-opacity:1;stroke:none;stroke-width:0.251339"
               id="path1-0-4"
               cx="18.625027"
               cy="8.2575045"
               rx="0.35842294"
               ry="0.31541219" />
            <ellipse
               style="fill:#000000;fill-opacity:1;stroke:none;stroke-width:0.251339"
               id="path1"
               cx="17.648943"
               cy="7.5351381"
               rx="0.35842294"
               ry="0.31541219" />
            <ellipse
               style="fill:#38b000;fill-opacity:1;stroke:none;stroke-width:0.251339"
               id="path1-4"
               cx="19.639746"
               cy="7.5994043"
               rx="0.35842294"
               ry="0.31541219" />
          </g>
          <g
             id="g2"
             transform="matrix(1.1993992,0,0,1.0263683,-0.50984991,-0.51001032)"
             style="stroke-width:0.123461;stroke-dasharray:none">
            <rect
               style="fill:#000000;fill-opacity:1;stroke:#000000;stroke-width:0.123461;stroke-linejoin:round;stroke-dasharray:none;stroke-opacity:1"
               id="rect1"
               width="0.29374269"
               height="2.2365592"
               x="6.2580609"
               y="5.505547" />
            <rect
               style="fill:#000000;fill-opacity:1;stroke:#000000;stroke-width:0.123461;stroke-linejoin:round;stroke-dasharray:none;stroke-opacity:1"
               id="rect2"
               width="2.1505375"
               height="0.31362939"
               x="5.3691716"
               y="6.42311" />
          </g>
        </g>
        <path
           id="path1-1"
           style="fill:none;stroke:#000000;stroke-width:0.312795;stroke-dasharray:none;stroke-opacity:1"
           d="M 2.5591992,6.5313867 C 2.0892209,6.5303827 1.615117,6.6394492 1.1854688,6.8540625 0.70452426,7.0929927 0.29151382,7.4612208 -0.00515625,7.9129688 c -0.09147971,0.1397028 -0.25614806,0.4647573 -0.30058594,0.5900976 -0.0614298,0.1775663 -0.10323708,0.323805 -0.129375,0.4517578 -0.01569,0.073119 -0.12417389,0.9100274 -0.24310547,1.8605278 -0.18688739,1.504086 -0.23388818,1.881444 -0.3083789,2.500312 -0.0209299,0.169733 -0.00781,0.500035 0.0261328,0.652793 0.17643042,0.795131 0.76190265,1.381396 1.55912109,1.557656 0.18950241,0.04178 0.52016357,0.04825 0.72404297,0.0143 0.4887856,-0.08356 0.9253006,-0.336856 1.2350391,-0.715488 0.041821,-0.05222 0.5071011,-0.707676 1.0324804,-1.457109 0.5253809,-0.748127 0.9709998,-1.374821 0.9892969,-1.390489 0.019601,-0.01697 0.035332,-0.03919 0.035332,-0.04963 0,-0.01045 0.00653,-0.02086 0.013066,-0.02086 0.00784,-0.0013 0.054868,-0.04049 0.1045312,-0.08619 0.141147,-0.129255 0.3790075,-0.233706 0.5489063,-0.240235 0.3755578,0.02285 0.7529423,-0.01029 1.1264066,-0.01809 l 0.068262,-3.99457 C 6.3331086,7.569562 6.1449572,7.570862 5.9282815,7.570862 L 4.7964844,7.4415464 c -0.049663,-0.023501 -0.096731,-0.04305 -0.1058789,-0.044355 -0.00784,0 -0.052285,-0.032667 -0.098027,-0.071836 C 4.2174943,6.997664 3.8398129,6.7862017 3.3902344,6.6530273 3.1216635,6.5722414 2.8411862,6.5319891 2.5591992,6.5313867 Z m 8.0837698,0.00621 c -0.281987,6.024e-4 -0.562523,0.040855 -0.831094,0.1216406 -0.4495785,0.1331744 -0.8272599,0.3446366 -1.2023437,0.6723633 -0.045742,0.039169 -0.090187,0.071836 -0.098027,0.071836 -0.00915,0.00131 -0.056216,0.020855 -0.1058789,0.044355 -0.1163154,0.054836 -0.2300445,0.090142 -0.3280664,0.1018945 -0.078415,0.010451 -0.078408,0.010451 -0.026133,0.018281 0.028752,0.00392 -0.3214808,0.00785 -0.7775977,0.00914 -0.2166758,0 -0.4048271,-0.0013 -0.5477343,-0.00311 L 5.7901217,11.616531 c 0.6512571,-0.0022 2.1778919,-0.04798 2.1437069,-0.04296 l 0.5358403,0.253324 c 0.049663,0.0457 0.096691,0.08489 0.1045312,0.08619 0.3722912,0.463091 0.6961363,0.971835 1.0376948,1.460978 0.5253781,0.749432 0.9906601,1.404889 1.0324801,1.457109 0.309739,0.378632 0.746254,0.631929 1.235039,0.715489 0.20388,0.03395 0.534541,0.02742 0.724043,-0.01436 0.797218,-0.17626 1.382691,-0.762525 1.559121,-1.557656 0.03393,-0.152757 0.04706,-0.48306 0.02613,-0.652793 C 14.11422,12.703007 14.06722,12.325649 13.880332,10.821563 13.761401,9.8710622 13.652917,9.0341541 13.637227,8.9610352 13.611089,8.8330823 13.569282,8.6868437 13.507852,8.5092774 13.463414,8.3839371 13.298746,8.0588826 13.207266,7.9191797 12.910596,7.4674317 12.497585,7.0992036 12.016641,6.8602734 11.586992,6.6456602 11.112947,6.5365936 10.642969,6.5375977 Z"
           clip-path="url(#clipPath15)"
           transform="matrix(1,0,0,0.71764346,1.0277778,-4.4648777)"
           sodipodi:nodetypes="sccccccccccccsccccccccccsscccccccccccccccccccccccss" />
      </g>
      <rect
         style="fill:#38b000;stroke:#38b000;stroke-width:0.082696;stroke-linecap:round;stroke-linejoin:round;paint-order:fill markers stroke"
         id="rect6"
         width="0.9423942"
         height="0.82679665"
         x="11.081835"
         y="1.8832589" />
    </g>
    <text
       xml:space="preserve"
       style="font-style:normal;font-variant:normal;font-weight:normal;font-stretch:normal;font-size:9.44141px;font-family:Stencil;-inkscape-font-specification:'Stencil, Normal';font-variant-ligatures:normal;font-variant-caps:normal;font-variant-numeric:normal;font-variant-east-asian:normal;fill:none;fill-opacity:0.984733;stroke:#000000;stroke-width:0.149999;stroke-linecap:round;stroke-linejoin:round;stroke-dasharray:none;stroke-opacity:1;paint-order:fill markers stroke"
       x="0.36413145"
       y="7.2321358"
       id="text6-9"
       transform="scale(0.87791666,1.1390603)"><tspan
         sodipodi:role="line"
         id="tspan6-8"
         x="0.36413145"
         y="7.2321358"
         style="font-style:normal;font-variant:normal;font-weight:normal;font-stretch:normal;font-size:9.44141px;font-family:Stencil;-inkscape-font-specification:'Stencil, Normal';font-variant-ligatures:normal;font-variant-caps:normal;font-variant-numeric:normal;font-variant-east-asian:normal;stroke-width:0.149999;stroke-dasharray:none">G</tspan><tspan
         sodipodi:role="line"
         id="tspan7-0"
         x="0.36413145"
         y="19.033897"
         style="font-style:normal;font-variant:normal;font-weight:normal;font-stretch:normal;font-size:9.44141px;font-family:Stencil;-inkscape-font-specification:'Stencil, Normal';font-variant-ligatures:normal;font-variant-caps:normal;font-variant-numeric:normal;font-variant-east-asian:normal;stroke-width:0.149999;stroke-dasharray:none" /></text>
    <text
       xml:space="preserve"
       style="font-style:normal;font-variant:normal;font-weight:normal;font-stretch:normal;font-size:9.44141px;font-family:Stencil;-inkscape-font-specification:'Stencil, Normal';font-variant-ligatures:normal;font-variant-caps:normal;font-variant-numeric:normal;font-variant-east-asian:normal;fill:none;fill-opacity:0.984733;stroke:#000000;stroke-width:0.149999;stroke-linecap:round;stroke-linejoin:round;stroke-dasharray:none;stroke-opacity:1;paint-order:fill markers stroke"
       x="11.638938"
       y="7.15522"
       id="text6-9-1"
       transform="scale(0.87791665,1.1390603)"><tspan
         sodipodi:role="line"
         id="tspan6-8-9"
         x="11.638938"
         y="7.15522"
         style="font-style:normal;font-variant:normal;font-weight:normal;font-stretch:normal;font-size:9.44141px;font-family:Stencil;-inkscape-font-specification:'Stencil, Normal';font-variant-ligatures:normal;font-variant-caps:normal;font-variant-numeric:normal;font-variant-east-asian:normal;stroke-width:0.149999;stroke-dasharray:none">G</tspan><tspan
         sodipodi:role="line"
         id="tspan7-0-2"
         x="11.638938"
         y="18.956984"
         style="font-style:normal;font-variant:normal;font-weight:normal;font-stretch:normal;font-size:9.44141px;font-family:Stencil;-inkscape-font-specification:'Stencil, Normal';font-variant-ligatures:normal;font-variant-caps:normal;font-variant-numeric:normal;font-variant-east-asian:normal;stroke-width:0.149999;stroke-dasharray:none" /></text>
  </g>
</svg>
